<svg xmlns="http://www.w3.org/2000/svg" width="900" height="220" viewBox="0 0 900 220" role="img" aria-label="OpenLiveRadio wordmark">
  <defs>
    <linearGradient id="gw" x1="0" y1="0" x2="1" y2="1">
      <stop offset="0%" stop-color="#0ea5a6"/>
      <stop offset="100%" stop-color="#0b7285"/>
    </linearGradient>
  </defs>
  <!-- Icon (reused smaller) -->
  <g transform="translate(20,30) scale(1.1)">
    <rect x="10" y="26" width="92" height="68" rx="12" ry="12" fill="none" stroke="#0f172a" stroke-width="4"/>
    <polygon points="42,44 42,76 68,60" fill="#f59e0b" stroke="#0f172a" stroke-width="3" stroke-linejoin="round"/>
    <circle cx="88" cy="60" r="14" fill="none" stroke="#0f172a" stroke-width="3"/>
    <circle cx="88" cy="60" r="7" fill="none" stroke="#0f172a" stroke-width="3" opacity="0.75"/>
    <line x1="22" y1="22" x2="36" y2="34" stroke="#0f172a" stroke-width="4" stroke-linecap="round"/>
    <circle cx="22" cy="22" r="3.5" fill="#f59e0b" stroke="#0f172a" stroke-width="2"/>
    <path d="M41 29a18 18 0 0 1 13 6" fill="none" stroke="#0f172a" stroke-width="3" stroke-linecap="round" opacity="0.6"/>
    <path d="M45 26a24 24 0 0 1 17 9" fill="none" stroke="#0f172a" stroke-width="3" stroke-linecap="round" opacity="0.35"/>
  </g>
  <!-- Wordmark -->
  <text x="170" y="95" font-family="Inter,Segoe UI,Roboto,Ubuntu,Arial,sans-serif" font-weight="800" font-size="62" fill="#0f172a">OpenLiveRadio</text>
  <text x="172" y="140" font-family="Inter,Segoe UI,Roboto,Ubuntu,Arial,sans-serif" font-weight="400" font-size="22" fill="#0f172a" opacity="0.75">Redonner vie à la Liveradio Vintage</text>
  <rect x="0" y="0" width="900" height="220" fill="url(#gw)" opacity="0.06"/>
</svg>